<svg viewBox="0 0 66 29" fill="none" xmlns="http://www.w3.org/2000/svg">
  <rect width="66" height="28" rx="4" transform="matrix(1 0 0 -1 0 28.5)" fill="#121825" />
  <path
    d="M18.2117 18.5V11.2273H20.7544C21.261 11.2273 21.6788 11.3149 22.0079 11.4901C22.337 11.6629 22.582 11.8961 22.743 12.1896C22.904 12.4808 22.9845 12.804 22.9845 13.1591C22.9845 13.4716 22.9288 13.7296 22.8176 13.9332C22.7087 14.1368 22.5642 14.2978 22.3843 14.4162C22.2068 14.5346 22.0138 14.6222 21.8055 14.679V14.75C22.028 14.7642 22.2517 14.8423 22.4767 14.9844C22.7016 15.1264 22.8898 15.33 23.0413 15.5952C23.1928 15.8603 23.2686 16.1847 23.2686 16.5682C23.2686 16.9328 23.1857 17.2607 23.02 17.5518C22.8543 17.843 22.5927 18.0739 22.2352 18.2443C21.8777 18.4148 21.4125 18.5 20.8396 18.5H18.2117ZM19.0924 17.7188H20.8396C21.4149 17.7188 21.8232 17.6075 22.0647 17.3849C22.3086 17.16 22.4305 16.8878 22.4305 16.5682C22.4305 16.322 22.3677 16.0947 22.2423 15.8864C22.1168 15.6757 21.9381 15.5076 21.7061 15.3821C21.474 15.2543 21.1994 15.1903 20.8822 15.1903H19.0924V17.7188ZM19.0924 14.4233H20.7259C20.9911 14.4233 21.2302 14.3712 21.4433 14.267C21.6587 14.1629 21.8292 14.0161 21.9546 13.8267C22.0825 13.6373 22.1464 13.4148 22.1464 13.1591C22.1464 12.8395 22.0351 12.5684 21.8126 12.3459C21.5901 12.121 21.2373 12.0085 20.7544 12.0085H19.0924V14.4233ZM28.0395 16.2699V13.0455H28.8776V18.5H28.0395V17.5767H27.9827C27.8548 17.8537 27.656 18.0893 27.3861 18.2834C27.1162 18.4751 26.7753 18.571 26.3634 18.571C26.0225 18.571 25.7194 18.4964 25.4543 18.3473C25.1891 18.1958 24.9808 17.9685 24.8293 17.6655C24.6778 17.3601 24.602 16.9754 24.602 16.5114V13.0455H25.4401V16.4545C25.4401 16.8523 25.5513 17.1695 25.7739 17.4062C25.9988 17.643 26.2852 17.7614 26.6333 17.7614C26.8416 17.7614 27.0535 17.7081 27.2689 17.6016C27.4867 17.495 27.669 17.3317 27.8158 17.1115C27.9649 16.8913 28.0395 16.6108 28.0395 16.2699ZM32.7847 13.0455V13.7557H29.958V13.0455H32.7847ZM30.7819 11.7386H31.6199V16.9375C31.6199 17.1742 31.6543 17.3518 31.7229 17.4702C31.7939 17.5862 31.8839 17.6643 31.9928 17.7045C32.1041 17.7424 32.2213 17.7614 32.3444 17.7614C32.4367 17.7614 32.5125 17.7566 32.5716 17.7472C32.6308 17.7353 32.6782 17.7259 32.7137 17.7188L32.8841 18.4716C32.8273 18.4929 32.748 18.5142 32.6462 18.5355C32.5444 18.5592 32.4154 18.571 32.2591 18.571C32.0224 18.571 31.7904 18.5201 31.5631 18.4183C31.3382 18.3165 31.1512 18.1615 31.002 17.9531C30.8553 17.7448 30.7819 17.482 30.7819 17.1648V11.7386ZM36.4175 13.0455V13.7557H33.5908V13.0455H36.4175ZM34.4147 11.7386H35.2528V16.9375C35.2528 17.1742 35.2871 17.3518 35.3557 17.4702C35.4268 17.5862 35.5167 17.6643 35.6256 17.7045C35.7369 17.7424 35.8541 17.7614 35.9772 17.7614C36.0695 17.7614 36.1453 17.7566 36.2045 17.7472C36.2636 17.7353 36.311 17.7259 36.3465 17.7188L36.517 18.4716C36.4601 18.4929 36.3808 18.5142 36.279 18.5355C36.1772 18.5592 36.0482 18.571 35.892 18.571C35.6552 18.571 35.4232 18.5201 35.1959 18.4183C34.971 18.3165 34.784 18.1615 34.6349 17.9531C34.4881 17.7448 34.4147 17.482 34.4147 17.1648V11.7386ZM39.8355 18.6136C39.3431 18.6136 38.911 18.4964 38.5393 18.2621C38.17 18.0277 37.8812 17.6998 37.6729 17.2784C37.4669 16.857 37.3639 16.3646 37.3639 15.8011C37.3639 15.233 37.4669 14.737 37.6729 14.3132C37.8812 13.8894 38.17 13.5604 38.5393 13.326C38.911 13.0916 39.3431 12.9744 39.8355 12.9744C40.3279 12.9744 40.7588 13.0916 41.1281 13.326C41.4998 13.5604 41.7886 13.8894 41.9946 14.3132C42.2029 14.737 42.3071 15.233 42.3071 15.8011C42.3071 16.3646 42.2029 16.857 41.9946 17.2784C41.7886 17.6998 41.4998 18.0277 41.1281 18.2621C40.7588 18.4964 40.3279 18.6136 39.8355 18.6136ZM39.8355 17.8608C40.2095 17.8608 40.5173 17.7649 40.7588 17.5732C41.0003 17.3814 41.179 17.1293 41.295 16.8168C41.411 16.5043 41.469 16.1657 41.469 15.8011C41.469 15.4366 41.411 15.0968 41.295 14.782C41.179 14.4671 41.0003 14.2126 40.7588 14.0185C40.5173 13.8243 40.2095 13.7273 39.8355 13.7273C39.4614 13.7273 39.1537 13.8243 38.9122 14.0185C38.6707 14.2126 38.492 14.4671 38.376 14.782C38.26 15.0968 38.202 15.4366 38.202 15.8011C38.202 16.1657 38.26 16.5043 38.376 16.8168C38.492 17.1293 38.6707 17.3814 38.9122 17.5732C39.1537 17.7649 39.4614 17.8608 39.8355 17.8608ZM44.4244 15.2188V18.5H43.5864V13.0455H44.396V13.8977H44.4671C44.5949 13.6207 44.789 13.3982 45.0494 13.2301C45.3099 13.0597 45.646 12.9744 46.058 12.9744C46.4273 12.9744 46.7504 13.0502 47.0274 13.2017C47.3044 13.3509 47.5199 13.5781 47.6737 13.8835C47.8276 14.1866 47.9046 14.5701 47.9046 15.0341V18.5H47.0665V15.0909C47.0665 14.6624 46.9552 14.3286 46.7327 14.0895C46.5102 13.848 46.2048 13.7273 45.8165 13.7273C45.549 13.7273 45.3099 13.7853 45.0992 13.9013C44.8908 14.0173 44.7263 14.1866 44.6056 14.4091C44.4848 14.6316 44.4244 14.9015 44.4244 15.2188Z"
    fill="#F9FAFB" />
</svg>