<svg viewBox="0 0 65 56" fill="none" xmlns="http://www.w3.org/2000/svg">
  <rect width="64.5801" height="55.7737" rx="3.91395" transform="matrix(1 0 0 -1 0 55.7737)"
    fill="#1F2937" />
  <path
    d="M40.165 16.5119H24.415C23.4871 16.5129 22.5974 16.882 21.9413 17.5381C21.2851 18.1943 20.9161 19.0839 20.915 20.0119V35.7619C20.9161 36.6898 21.2851 37.5795 21.9413 38.2356C22.5974 38.8918 23.4871 39.2609 24.415 39.2619H40.165C41.093 39.2609 41.9826 38.8918 42.6388 38.2356C43.295 37.5795 43.664 36.6898 43.665 35.7619V20.0119C43.664 19.0839 43.295 18.1943 42.6388 17.5381C41.9826 16.882 41.093 16.5129 40.165 16.5119ZM38.21 24.0746L30.86 32.8246C30.7793 32.9206 30.679 32.9982 30.5658 33.0521C30.4526 33.106 30.3291 33.1349 30.2037 33.1369H30.1889C30.0663 33.1368 29.945 33.111 29.833 33.0611C29.721 33.0111 29.6207 32.9382 29.5387 32.847L26.3887 29.347C26.3087 29.2622 26.2465 29.1622 26.2057 29.0529C26.1649 28.9437 26.1463 28.8274 26.1511 28.7109C26.1559 28.5944 26.1839 28.48 26.2335 28.3745C26.2831 28.2689 26.3534 28.1744 26.44 28.0964C26.5267 28.0184 26.6281 27.9585 26.7383 27.9202C26.8485 27.8819 26.9652 27.8661 27.0815 27.8736C27.1979 27.8811 27.3116 27.9117 27.416 27.9638C27.5203 28.0158 27.6132 28.0882 27.6892 28.1767L30.166 30.9286L36.8701 22.9491C37.0205 22.7753 37.2333 22.6676 37.4624 22.6493C37.6916 22.631 37.9187 22.7037 38.0947 22.8516C38.2707 22.9994 38.3815 23.2106 38.4031 23.4395C38.4246 23.6683 38.3553 23.8965 38.21 24.0746Z"
    fill="#F9FAFB" />
</svg>