<svg viewBox="0 0 66 57" fill="none" xmlns="http://www.w3.org/2000/svg">
  <rect width="64.5801" height="55.7737" rx="3.91395" transform="matrix(1 0 0 -1 0.532227 56.6105)"
    fill="#121825" />
  <path
    d="M14.447 32.7236H12.2509V25.6074H14.5443C15.2346 25.6074 15.8253 25.7498 16.3164 26.0348C16.8075 26.3174 17.1839 26.7239 17.4457 27.2544C17.7074 27.7826 17.8383 28.415 17.8383 29.1516C17.8383 29.8929 17.7063 30.5311 17.4422 31.0662C17.1781 31.599 16.7936 32.009 16.2886 32.2963C15.7836 32.5812 15.1697 32.7236 14.447 32.7236ZM13.1127 31.9592H14.3914C14.9798 31.9592 15.4674 31.8457 15.8542 31.6187C16.2411 31.3917 16.5295 31.0685 16.7195 30.6492C16.9094 30.2299 17.0044 29.7307 17.0044 29.1516C17.0044 28.5771 16.9106 28.0826 16.7229 27.6679C16.5353 27.2509 16.255 26.9313 15.882 26.7089C15.5091 26.4842 15.0446 26.3718 14.4887 26.3718H13.1127V31.9592ZM19.1726 32.7236V27.3864H19.9927V32.7236H19.1726ZM19.5896 26.4969C19.4298 26.4969 19.2919 26.4425 19.1761 26.3336C19.0626 26.2247 19.0058 26.0938 19.0058 25.941C19.0058 25.7881 19.0626 25.6572 19.1761 25.5483C19.2919 25.4394 19.4298 25.385 19.5896 25.385C19.7494 25.385 19.8861 25.4394 19.9996 25.5483C20.1154 25.6572 20.1733 25.7881 20.1733 25.941C20.1733 26.0938 20.1154 26.2247 19.9996 26.3336C19.8861 26.4425 19.7494 26.4969 19.5896 26.4969ZM25.8589 27.3864L23.8852 32.7236H23.0513L21.0776 27.3864H21.9672L23.4405 31.6395H23.4961L24.9694 27.3864H25.8589ZM29.8045 32.7236V25.6074H32.2924C32.7881 25.6074 33.197 25.6931 33.519 25.8645C33.8409 26.0336 34.0807 26.2618 34.2382 26.549C34.3957 26.834 34.4745 27.1502 34.4745 27.4976C34.4745 27.8034 34.4201 28.0559 34.3112 28.2551C34.2046 28.4544 34.0633 28.6119 33.8873 28.7277C33.7135 28.8435 33.5247 28.9292 33.3209 28.9848V29.0543C33.5386 29.0682 33.7575 29.1447 33.9776 29.2837C34.1977 29.4226 34.3818 29.6219 34.5301 29.8813C34.6784 30.1408 34.7525 30.4581 34.7525 30.8334C34.7525 31.1901 34.6714 31.511 34.5093 31.7959C34.3471 32.0808 34.0911 32.3067 33.7413 32.4735C33.3915 32.6403 32.9364 32.7236 32.3758 32.7236H29.8045ZM30.6662 31.9592H32.3758C32.9387 31.9592 33.3383 31.8503 33.5745 31.6326C33.8131 31.4125 33.9324 31.1461 33.9324 30.8334C33.9324 30.5925 33.8711 30.3701 33.7483 30.1662C33.6255 29.9601 33.4506 29.7956 33.2236 29.6728C32.9966 29.5477 32.7279 29.4852 32.4175 29.4852H30.6662V31.9592ZM30.6662 28.7346H32.2646C32.524 28.7346 32.758 28.6837 32.9665 28.5818C33.1773 28.4798 33.3441 28.3362 33.4668 28.1509C33.5919 27.9656 33.6545 27.7478 33.6545 27.4976C33.6545 27.1849 33.5456 26.9197 33.3278 26.7019C33.1101 26.4819 32.7649 26.3718 32.2924 26.3718H30.6662V28.7346ZM36.8773 25.6074V32.7236H36.0572V25.6074H36.8773ZM40.5475 32.8348C40.0656 32.8348 39.6429 32.7202 39.2792 32.4908C38.9178 32.2615 38.6352 31.9407 38.4314 31.5283C38.2298 31.116 38.1291 30.6342 38.1291 30.0828C38.1291 29.5269 38.2298 29.0416 38.4314 28.6269C38.6352 28.2123 38.9178 27.8903 39.2792 27.661C39.6429 27.4316 40.0656 27.317 40.5475 27.317C41.0293 27.317 41.4509 27.4316 41.8123 27.661C42.176 27.8903 42.4586 28.2123 42.6601 28.6269C42.864 29.0416 42.9659 29.5269 42.9659 30.0828C42.9659 30.6342 42.864 31.116 42.6601 31.5283C42.4586 31.9407 42.176 32.2615 41.8123 32.4908C41.4509 32.7202 41.0293 32.8348 40.5475 32.8348ZM40.5475 32.0982C40.9135 32.0982 41.2146 32.0044 41.4509 31.8167C41.6872 31.6291 41.8621 31.3824 41.9756 31.0766C42.0891 30.7708 42.1459 30.4396 42.1459 30.0828C42.1459 29.7261 42.0891 29.3937 41.9756 29.0856C41.8621 28.7775 41.6872 28.5285 41.4509 28.3385C41.2146 28.1486 40.9135 28.0536 40.5475 28.0536C40.1815 28.0536 39.8803 28.1486 39.644 28.3385C39.4078 28.5285 39.2329 28.7775 39.1194 29.0856C39.0059 29.3937 38.9491 29.7261 38.9491 30.0828C38.9491 30.4396 39.0059 30.7708 39.1194 31.0766C39.2329 31.3824 39.4078 31.6291 39.644 31.8167C39.8803 32.0044 40.1815 32.0982 40.5475 32.0982ZM46.3859 32.8348C45.8856 32.8348 45.4547 32.7167 45.0933 32.4804C44.7319 32.2441 44.454 31.9187 44.2594 31.504C44.0648 31.0894 43.9675 30.6156 43.9675 30.0828C43.9675 29.5408 44.0671 29.0624 44.2663 28.6478C44.4679 28.2308 44.7482 27.9053 45.1072 27.6714C45.4686 27.4351 45.8902 27.317 46.372 27.317C46.7473 27.317 47.0855 27.3864 47.3866 27.5254C47.6878 27.6644 47.9345 27.859 48.1268 28.1092C48.319 28.3594 48.4383 28.6513 48.4847 28.9848H47.6646C47.6021 28.7416 47.4631 28.5262 47.2476 28.3385C47.0345 28.1486 46.7473 28.0536 46.3859 28.0536C46.0662 28.0536 45.7859 28.137 45.545 28.3038C45.3064 28.4683 45.12 28.7011 44.9856 29.0022C44.8536 29.301 44.7875 29.652 44.7875 30.055C44.7875 30.4674 44.8524 30.8264 44.9821 31.1322C45.1142 31.438 45.2995 31.6754 45.5381 31.8445C45.779 32.0136 46.0616 32.0982 46.3859 32.0982C46.599 32.0982 46.7925 32.0611 46.9662 31.987C47.1399 31.9129 47.287 31.8063 47.4075 31.6673C47.5279 31.5283 47.6137 31.3616 47.6646 31.167H48.4847C48.4383 31.482 48.3237 31.7658 48.1407 32.0183C47.96 32.2685 47.7202 32.4677 47.4214 32.6159C47.1249 32.7619 46.7797 32.8348 46.3859 32.8348ZM50.4479 30.7778L50.434 29.7632H50.6008L52.9358 27.3864H53.9504L51.4625 29.9022H51.393L50.4479 30.7778ZM49.6834 32.7236V25.6074H50.5035V32.7236H49.6834ZM53.0748 32.7236L50.9899 30.0828L51.5737 29.513L54.1172 32.7236H53.0748Z"
    fill="#F9FAFB" />
</svg>