<svg viewBox="0 0 66 54" fill="none" xmlns="http://www.w3.org/2000/svg">
  <rect width="66" height="28" rx="4" transform="matrix(1 0 0 -1 0 53.5)" fill="#121825" />
  <path
    d="M21.3101 38.0455C21.2675 37.6856 21.0947 37.4062 20.7916 37.2074C20.4886 37.0085 20.1169 36.9091 19.6766 36.9091C19.3546 36.9091 19.0729 36.9612 18.8314 37.0653C18.5923 37.1695 18.4053 37.3127 18.2703 37.495C18.1378 37.6773 18.0715 37.8845 18.0715 38.1165C18.0715 38.3106 18.1176 38.4775 18.21 38.6172C18.3047 38.7545 18.4254 38.8693 18.5722 38.9616C18.719 39.0516 18.8728 39.1262 19.0338 39.1854C19.1948 39.2422 19.3428 39.2884 19.4777 39.3239L20.2164 39.5227C20.4057 39.5724 20.6164 39.6411 20.8485 39.7287C21.0828 39.8163 21.3066 39.9358 21.5196 40.0874C21.7351 40.2365 21.9126 40.4283 22.0523 40.6626C22.192 40.897 22.2618 41.1847 22.2618 41.5256C22.2618 41.9186 22.1588 42.2737 21.9529 42.5909C21.7493 42.9081 21.451 43.1603 21.058 43.3473C20.6673 43.5343 20.1927 43.6278 19.634 43.6278C19.1131 43.6278 18.6621 43.5438 18.281 43.3757C17.9022 43.2076 17.6039 42.9732 17.3861 42.6726C17.1707 42.3719 17.0487 42.0227 17.0203 41.625H17.9294C17.9531 41.8996 18.0454 42.1269 18.2064 42.3068C18.3698 42.4844 18.5757 42.617 18.8243 42.7045C19.0753 42.7898 19.3451 42.8324 19.634 42.8324C19.9701 42.8324 20.272 42.7779 20.5395 42.669C20.807 42.5578 21.0189 42.4039 21.1752 42.2074C21.3314 42.0085 21.4095 41.7765 21.4095 41.5114C21.4095 41.2699 21.3421 41.0734 21.2071 40.9219C21.0722 40.7704 20.8946 40.6473 20.6744 40.5526C20.4543 40.4579 20.2164 40.375 19.9607 40.304L19.0658 40.0483C18.4976 39.8849 18.0478 39.6518 17.7164 39.3487C17.3849 39.0457 17.2192 38.6491 17.2192 38.1591C17.2192 37.7519 17.3293 37.3968 17.5494 37.0938C17.772 36.7884 18.0703 36.5516 18.4443 36.3835C18.8208 36.2131 19.241 36.1278 19.705 36.1278C20.1737 36.1278 20.5904 36.2119 20.955 36.38C21.3196 36.5457 21.6084 36.773 21.8215 37.0618C22.0369 37.3506 22.1505 37.6785 22.1624 38.0455H21.3101ZM27.0336 41.2699V38.0455H27.8717V43.5H27.0336V42.5767H26.9768C26.849 42.8537 26.6501 43.0893 26.3802 43.2834C26.1104 43.4751 25.7694 43.571 25.3575 43.571C25.0166 43.571 24.7136 43.4964 24.4484 43.3473C24.1833 43.1958 23.9749 42.9685 23.8234 42.6655C23.6719 42.3601 23.5961 41.9754 23.5961 41.5114V38.0455H24.4342V41.4545C24.4342 41.8523 24.5455 42.1695 24.768 42.4062C24.9929 42.643 25.2794 42.7614 25.6274 42.7614C25.8357 42.7614 26.0476 42.7081 26.2631 42.6016C26.4809 42.495 26.6631 42.3317 26.8099 42.1115C26.9591 41.8913 27.0336 41.6108 27.0336 41.2699ZM29.5203 43.5V36.2273H30.3584V38.9119H30.4294C30.491 38.8172 30.5762 38.6965 30.6851 38.5497C30.7964 38.4006 30.955 38.268 31.161 38.152C31.3693 38.0336 31.651 37.9744 32.0061 37.9744C32.4654 37.9744 32.8702 38.0893 33.2206 38.3189C33.571 38.5485 33.8444 38.8741 34.0409 39.2955C34.2374 39.7169 34.3357 40.214 34.3357 40.7869C34.3357 41.3646 34.2374 41.8653 34.0409 42.2891C33.8444 42.7105 33.5722 43.0372 33.2242 43.2692C32.8762 43.4988 32.4749 43.6136 32.0203 43.6136C31.67 43.6136 31.3894 43.5556 31.1787 43.4396C30.968 43.3213 30.8058 43.1875 30.6922 43.0384C30.5786 42.8868 30.491 42.7614 30.4294 42.6619H30.33V43.5H29.5203ZM30.3442 40.7727C30.3442 41.1847 30.4046 41.5481 30.5253 41.8629C30.646 42.1754 30.8224 42.4205 31.0544 42.598C31.2864 42.7732 31.5705 42.8608 31.9067 42.8608C32.2571 42.8608 32.5494 42.7685 32.7838 42.5838C33.0206 42.3968 33.1981 42.1458 33.3165 41.831C33.4372 41.5137 33.4976 41.161 33.4976 40.7727C33.4976 40.3892 33.4384 40.0436 33.32 39.7358C33.204 39.4257 33.0277 39.1806 32.7909 39.0007C32.5566 38.8184 32.2618 38.7273 31.9067 38.7273C31.5658 38.7273 31.2793 38.8137 31.0473 38.9865C30.8153 39.157 30.6401 39.3961 30.5218 39.7038C30.4034 40.0092 30.3442 40.3655 30.3442 40.7727ZM35.6176 43.5V38.0455H36.4273V38.8977H36.4983C36.6119 38.6065 36.7954 38.3804 37.0487 38.2195C37.3021 38.0561 37.6063 37.9744 37.9614 37.9744C38.3212 37.9744 38.6207 38.0561 38.8598 38.2195C39.1013 38.3804 39.2895 38.6065 39.4244 38.8977H39.4813C39.6209 38.616 39.8305 38.3923 40.1098 38.2266C40.3892 38.0585 40.7242 37.9744 41.1148 37.9744C41.6025 37.9744 42.0014 38.1271 42.3115 38.4325C42.6217 38.7356 42.7767 39.2079 42.7767 39.8494V43.5H41.9387V39.8494C41.9387 39.447 41.8286 39.1593 41.6084 38.9865C41.3882 38.8137 41.129 38.7273 40.8307 38.7273C40.4472 38.7273 40.1501 38.8433 39.9394 39.0753C39.7287 39.3049 39.6233 39.5961 39.6233 39.9489V43.5H38.771V39.7642C38.771 39.4541 38.6704 39.2043 38.4692 39.0149C38.268 38.8232 38.0087 38.7273 37.6915 38.7273C37.4737 38.7273 37.2701 38.7853 37.0807 38.9013C36.8937 39.0173 36.7422 39.1783 36.6262 39.3842C36.5125 39.5878 36.4557 39.8234 36.4557 40.0909V43.5H35.6176ZM44.309 43.5V38.0455H45.1471V43.5H44.309ZM44.7352 37.1364C44.5718 37.1364 44.431 37.0807 44.3126 36.9695C44.1966 36.8582 44.1386 36.7244 44.1386 36.5682C44.1386 36.4119 44.1966 36.2782 44.3126 36.1669C44.431 36.0556 44.5718 36 44.7352 36C44.8985 36 45.0382 36.0556 45.1542 36.1669C45.2726 36.2782 45.3318 36.4119 45.3318 36.5682C45.3318 36.7244 45.2726 36.8582 45.1542 36.9695C45.0382 37.0807 44.8985 37.1364 44.7352 37.1364ZM49.0542 38.0455V38.7557H46.2275V38.0455H49.0542ZM47.0514 36.7386H47.8895V41.9375C47.8895 42.1742 47.9238 42.3518 47.9925 42.4702C48.0635 42.5862 48.1534 42.6643 48.2623 42.7045C48.3736 42.7424 48.4908 42.7614 48.6139 42.7614C48.7062 42.7614 48.782 42.7566 48.8412 42.7472C48.9004 42.7353 48.9477 42.7259 48.9832 42.7188L49.1537 43.4716C49.0969 43.4929 49.0175 43.5142 48.9157 43.5355C48.814 43.5592 48.6849 43.571 48.5287 43.571C48.2919 43.571 48.0599 43.5201 47.8327 43.4183C47.6077 43.3165 47.4207 43.1615 47.2716 42.9531C47.1248 42.7448 47.0514 42.482 47.0514 42.1648V36.7386Z"
    fill="#F9FAFB" />
  <rect width="66" height="20" rx="4" transform="matrix(1 0 0 -1 0 20)" fill="#121825" />
  <path d="M6.91859 6.72727V14H6.08052V6.72727H6.91859Z" fill="#F9FAFB" />
</svg>