<svg viewBox="0 0 65 57" fill="none" xmlns="http://www.w3.org/2000/svg">
  <path
    d="M1.49748 11.9017V3.36221H3.04443V6.97733H7.00147V3.36221H8.55259V11.9017H7.00147V8.27411H3.04443V11.9017H1.49748ZM13.0037 12.0268C12.3616 12.0268 11.807 11.8934 11.34 11.6265C10.8758 11.3569 10.5186 10.9761 10.2684 10.484C10.0182 9.98924 9.89314 9.40687 9.89314 8.73694C9.89314 8.07813 10.0182 7.49993 10.2684 7.00235C10.5214 6.50199 10.8744 6.11282 11.3275 5.83484C11.7806 5.55408 12.313 5.4137 12.9245 5.4137C13.3192 5.4137 13.6917 5.47763 14.042 5.6055C14.395 5.7306 14.7064 5.92518 14.976 6.18926C15.2484 6.45334 15.4625 6.7897 15.6181 7.19833C15.7738 7.60418 15.8516 8.08786 15.8516 8.64938V9.11221H10.602V8.09481H14.4047C14.402 7.80571 14.3394 7.54858 14.2171 7.32342C14.0948 7.09547 13.9238 6.91618 13.7042 6.78553C13.4874 6.65488 13.2345 6.58955 12.9454 6.58955C12.6368 6.58955 12.3658 6.66461 12.1323 6.81471C11.8988 6.96204 11.7167 7.15663 11.586 7.39847C11.4582 7.63753 11.3928 7.90022 11.3901 8.18654V9.07469C11.3901 9.44718 11.4582 9.76685 11.5944 10.0337C11.7306 10.2978 11.921 10.5007 12.1656 10.6425C12.4102 10.7815 12.6966 10.851 13.0246 10.851C13.2442 10.851 13.4429 10.8204 13.6208 10.7592C13.7988 10.6953 13.953 10.6022 14.0837 10.4799C14.2143 10.3576 14.313 10.2061 14.3797 10.0254L15.7891 10.1838C15.7001 10.5563 15.5306 10.8815 15.2804 11.1595C15.033 11.4347 14.7161 11.6488 14.3297 11.8017C13.9433 11.9518 13.5013 12.0268 13.0037 12.0268ZM18.9716 12.031C18.5657 12.031 18.2002 11.9587 17.875 11.8142C17.5525 11.6668 17.2968 11.45 17.1077 11.1637C16.9215 10.8774 16.8284 10.5243 16.8284 10.1046C16.8284 9.74323 16.8951 9.4444 17.0285 9.20812C17.162 8.97183 17.344 8.78281 17.5747 8.64104C17.8055 8.49927 18.0654 8.39225 18.3545 8.31997C18.6464 8.24492 18.948 8.19071 19.2593 8.15735C19.6346 8.11844 19.939 8.08369 20.1725 8.05311C20.406 8.01975 20.5755 7.96972 20.6812 7.903C20.7896 7.83351 20.8438 7.72649 20.8438 7.58194V7.55692C20.8438 7.2428 20.7507 6.99957 20.5644 6.82722C20.3782 6.65488 20.1099 6.5687 19.7597 6.5687C19.39 6.5687 19.0967 6.64932 18.8799 6.81054C18.6658 6.97177 18.5213 7.16219 18.4462 7.38179L17.0369 7.18165C17.1481 6.79248 17.3315 6.46724 17.5873 6.20594C17.843 5.94186 18.1557 5.74449 18.5254 5.61384C18.8952 5.48041 19.3038 5.4137 19.7513 5.4137C20.0599 5.4137 20.3671 5.44984 20.6728 5.52211C20.9786 5.59439 21.258 5.71392 21.5109 5.8807C21.7639 6.04471 21.9668 6.26849 22.1197 6.55202C22.2754 6.83556 22.3532 7.18999 22.3532 7.61529V11.9017H20.9022V11.0219H20.8521C20.7604 11.1998 20.6311 11.3666 20.4643 11.5223C20.3003 11.6752 20.0932 11.7989 19.8431 11.8934C19.5957 11.9851 19.3052 12.031 18.9716 12.031ZM19.3635 10.9219C19.6665 10.9219 19.9292 10.8621 20.1516 10.7426C20.374 10.6202 20.545 10.459 20.6645 10.2589C20.7868 10.0587 20.848 9.84052 20.848 9.60424V8.84952C20.8007 8.88844 20.7201 8.92458 20.6061 8.95793C20.4949 8.99129 20.3698 9.02048 20.2308 9.0455C20.0919 9.07052 19.9543 9.09275 19.818 9.11221C19.6818 9.13167 19.5637 9.14835 19.4636 9.16225C19.2385 9.19283 19.0369 9.24286 18.859 9.31236C18.6811 9.38185 18.5407 9.47914 18.4379 9.60424C18.335 9.72655 18.2836 9.88499 18.2836 10.0796C18.2836 10.3576 18.3851 10.5674 18.588 10.7092C18.7909 10.851 19.0494 10.9219 19.3635 10.9219ZM26.2477 12.0143C25.7446 12.0143 25.2942 11.8851 24.8967 11.6265C24.4992 11.368 24.1851 10.9927 23.9544 10.5007C23.7237 10.0087 23.6083 9.41104 23.6083 8.70775C23.6083 7.99613 23.725 7.39569 23.9585 6.90645C24.1948 6.41442 24.5131 6.04332 24.9134 5.79314C25.3137 5.54018 25.7598 5.4137 26.2519 5.4137C26.6271 5.4137 26.9357 5.47763 27.1775 5.6055C27.4194 5.7306 27.6112 5.88209 27.753 6.06C27.8947 6.23513 28.0045 6.40053 28.0824 6.55619H28.1449V3.36221H29.6585V11.9017H28.1741V10.8927H28.0824C28.0045 11.0483 27.8919 11.2137 27.7446 11.3889C27.5973 11.5612 27.4027 11.7085 27.1609 11.8308C26.919 11.9532 26.6146 12.0143 26.2477 12.0143ZM26.6688 10.7759C26.9885 10.7759 27.2609 10.6897 27.4861 10.5174C27.7113 10.3423 27.8822 10.099 27.999 9.7877C28.1157 9.47637 28.1741 9.1136 28.1741 8.69941C28.1741 8.28522 28.1157 7.92524 27.999 7.61946C27.885 7.31369 27.7154 7.07601 27.4903 6.90645C27.2679 6.73688 26.9941 6.6521 26.6688 6.6521C26.3325 6.6521 26.0517 6.73966 25.8266 6.91479C25.6014 7.08991 25.4318 7.33176 25.3179 7.64031C25.2039 7.94887 25.1469 8.3019 25.1469 8.69941C25.1469 9.0997 25.2039 9.45691 25.3179 9.77102C25.4346 10.0824 25.6056 10.3284 25.8307 10.5091C26.0587 10.687 26.338 10.7759 26.6688 10.7759ZM31.267 11.9017V5.49709H32.7764V11.9017H31.267ZM32.0258 4.5881C31.7868 4.5881 31.5811 4.50888 31.4087 4.35043C31.2364 4.1892 31.1502 3.99601 31.1502 3.77084C31.1502 3.5429 31.2364 3.3497 31.4087 3.19126C31.5811 3.03003 31.7868 2.94941 32.0258 2.94941C32.2677 2.94941 32.4734 3.03003 32.643 3.19126C32.8153 3.3497 32.9015 3.5429 32.9015 3.77084C32.9015 3.99601 32.8153 4.1892 32.643 4.35043C32.4734 4.50888 32.2677 4.5881 32.0258 4.5881ZM35.838 8.14901V11.9017H34.3286V5.49709H35.7713V6.58538H35.8463C35.9937 6.22679 36.2285 5.94186 36.551 5.7306C36.8762 5.51933 37.2779 5.4137 37.756 5.4137C38.198 5.4137 38.583 5.50821 38.911 5.69724C39.2418 5.88626 39.4976 6.16007 39.6783 6.51867C39.8617 6.87726 39.9521 7.3123 39.9493 7.82378V11.9017H38.4399V8.05728C38.4399 7.62919 38.3287 7.29423 38.1063 7.05239C37.8867 6.81054 37.5823 6.68962 37.1931 6.68962C36.9291 6.68962 36.6942 6.748 36.4885 6.86475C36.2855 6.97872 36.1257 7.14412 36.0089 7.36094C35.895 7.57777 35.838 7.84046 35.838 8.14901ZM44.2691 14.4369C43.727 14.4369 43.2614 14.3632 42.8722 14.2159C42.4831 14.0714 42.1703 13.8768 41.9341 13.6322C41.6978 13.3875 41.5338 13.1165 41.442 12.8191L42.8014 12.4897C42.8625 12.6148 42.9515 12.7385 43.0682 12.8608C43.185 12.9859 43.342 13.0887 43.5394 13.1693C43.7395 13.2527 43.9911 13.2944 44.2941 13.2944C44.7222 13.2944 45.0766 13.1902 45.3574 12.9817C45.6381 12.776 45.7785 12.4368 45.7785 11.9643V10.7509H45.7035C45.6256 10.9066 45.5117 11.0664 45.3615 11.2304C45.2142 11.3944 45.0182 11.532 44.7736 11.6432C44.5318 11.7544 44.2274 11.81 43.8605 11.81C43.3684 11.81 42.9223 11.6946 42.522 11.4639C42.1245 11.2304 41.8076 10.8829 41.5713 10.4215C41.3378 9.95727 41.221 9.37629 41.221 8.67856C41.221 7.97528 41.3378 7.38179 41.5713 6.89811C41.8076 6.41164 42.1259 6.04332 42.5262 5.79314C42.9264 5.54018 43.3726 5.4137 43.8646 5.4137C44.2399 5.4137 44.5485 5.47763 44.7903 5.6055C45.0349 5.7306 45.2295 5.88209 45.3741 6.06C45.5186 6.23513 45.6284 6.40053 45.7035 6.55619H45.7869V5.49709H47.2754V12.006C47.2754 12.5536 47.1448 13.0067 46.8835 13.3653C46.6222 13.7239 46.265 13.9921 45.8119 14.17C45.3588 14.348 44.8445 14.4369 44.2691 14.4369ZM44.2816 10.6258C44.6013 10.6258 44.8737 10.548 45.0989 10.3923C45.324 10.2366 45.495 10.0129 45.6117 9.72099C45.7285 9.42911 45.7869 9.07885 45.7869 8.67023C45.7869 8.26716 45.7285 7.91412 45.6117 7.61112C45.4978 7.30813 45.3282 7.07323 45.103 6.90645C44.8806 6.73688 44.6068 6.6521 44.2816 6.6521C43.9452 6.6521 43.6645 6.73966 43.4393 6.91479C43.2142 7.08991 43.0446 7.33037 42.9306 7.63614C42.8166 7.93914 42.7597 8.28383 42.7597 8.67023C42.7597 9.06218 42.8166 9.40548 42.9306 9.70014C43.0474 9.99202 43.2183 10.22 43.4435 10.384C43.6714 10.5452 43.9508 10.6258 44.2816 10.6258Z"
    fill="#F9FAFB" />
  <rect x="0.489243" y="-0.489243" width="63.6016" height="16.9854" rx="3.4247"
    transform="matrix(1 0 0 -1 0.35083 35.8012)" fill="#1F2937" />
  <rect x="0.489243" y="-0.489243" width="63.6016" height="16.9854" rx="3.4247"
    transform="matrix(1 0 0 -1 0.35083 35.8012)" stroke="#F9FAFB" stroke-width="0.978487"
    stroke-dasharray="1.96 1.96" />
  <rect width="64.5801" height="15.9819" rx="3.91395" transform="matrix(1 0 0 -1 0.351013 56.6755)"
    fill="#121825" />
</svg>