<svg viewBox="0 0 65 56" fill="none" xmlns="http://www.w3.org/2000/svg">
  <rect width="64.5801" height="55.7737" rx="3.91395" transform="matrix(1 0 0 -1 0 55.7737)"
    fill="#1F2937" />
  <path
    d="M42.29 15.8869H22.29C21.2295 15.888 20.2128 16.3098 19.4629 17.0597C18.713 17.8096 18.2912 18.8264 18.29 19.8869V35.8869C18.2912 36.9474 18.713 37.9641 19.4629 38.714C20.2128 39.4639 21.2295 39.8857 22.29 39.8869H42.29C43.3505 39.8857 44.3673 39.4639 45.1172 38.714C45.8671 37.9641 46.2889 36.9474 46.29 35.8869V19.8869C46.2889 18.8264 45.8671 17.8096 45.1172 17.0597C44.3673 16.3098 43.3505 15.888 42.29 15.8869ZM37.29 19.8869C37.8834 19.8869 38.4634 20.0628 38.9567 20.3925C39.4501 20.7221 39.8346 21.1906 40.0617 21.7388C40.2887 22.287 40.3482 22.8902 40.2324 23.4721C40.1166 24.0541 39.8309 24.5886 39.4114 25.0082C38.9918 25.4277 38.4573 25.7135 37.8753 25.8292C37.2934 25.945 36.6902 25.8856 36.142 25.6585C35.5938 25.4314 35.1253 25.0469 34.7956 24.5536C34.466 24.0602 34.29 23.4802 34.29 22.8869C34.2909 22.0915 34.6072 21.3289 35.1696 20.7665C35.7321 20.204 36.4946 19.8877 37.29 19.8869ZM22.29 37.8869C21.7596 37.8869 21.2509 37.6762 20.8758 37.3011C20.5008 36.926 20.29 36.4173 20.29 35.8869V31.66L26.2175 26.3912C26.7894 25.884 27.5332 25.6139 28.2973 25.636C29.0614 25.6581 29.7884 25.9706 30.33 26.51L34.3894 30.5606L27.0632 37.8869H22.29ZM44.29 35.8869C44.29 36.4173 44.0793 36.926 43.7043 37.3011C43.3292 37.6762 42.8205 37.8869 42.29 37.8869H29.8919L37.4807 30.2981C38.018 29.8412 38.6998 29.5895 39.4051 29.5876C40.1104 29.5858 40.7935 29.834 41.3332 30.2881L44.29 32.7519V35.8869Z"
    fill="#F9FAFB" />
</svg>