<svg viewBox="0 0 66 29" fill="none" xmlns="http://www.w3.org/2000/svg">
  <rect width="66" height="28" rx="4" transform="matrix(1 0 0 -1 0 28.5)" fill="#121825" />
  <path
    d="M21.0487 18.5V11.2273H21.9293V17.7188H25.31V18.5H21.0487ZM28.1651 18.6278C27.8195 18.6278 27.5058 18.5627 27.2241 18.4325C26.9424 18.3 26.7186 18.1094 26.5529 17.8608C26.3872 17.6098 26.3043 17.3068 26.3043 16.9517C26.3043 16.6392 26.3659 16.3859 26.489 16.1918C26.6121 15.9953 26.7766 15.8414 26.9826 15.7301C27.1886 15.6188 27.4158 15.536 27.6644 15.4815C27.9154 15.4247 28.1675 15.3797 28.4208 15.3466C28.7522 15.304 29.021 15.272 29.2269 15.2507C29.4353 15.227 29.5868 15.188 29.6815 15.1335C29.7785 15.0791 29.8271 14.9844 29.8271 14.8494V14.821C29.8271 14.4706 29.7312 14.1984 29.5394 14.0043C29.35 13.8101 29.0624 13.7131 28.6765 13.7131C28.2764 13.7131 27.9627 13.8007 27.7354 13.9759C27.5082 14.151 27.3484 14.3381 27.256 14.5369L26.4606 14.2528C26.6026 13.9214 26.792 13.6634 27.0288 13.4787C27.2679 13.2917 27.5283 13.1615 27.81 13.0881C28.0941 13.0123 28.3735 12.9744 28.6481 12.9744C28.8233 12.9744 29.0245 12.9957 29.2518 13.0384C29.4814 13.0786 29.7028 13.1626 29.9158 13.2905C30.1313 13.4183 30.31 13.6113 30.4521 13.8693C30.5941 14.1274 30.6651 14.473 30.6651 14.9062V18.5H29.8271V17.7614H29.7844C29.7276 17.8797 29.6329 18.0064 29.5004 18.1413C29.3678 18.2763 29.1914 18.3911 28.9712 18.4858C28.7511 18.5805 28.4824 18.6278 28.1651 18.6278ZM28.293 17.875C28.6244 17.875 28.9038 17.8099 29.131 17.6797C29.3607 17.5495 29.5335 17.3814 29.6495 17.1754C29.7679 16.9695 29.8271 16.7528 29.8271 16.5256V15.7585C29.7915 15.8011 29.7134 15.8402 29.5927 15.8757C29.4743 15.9089 29.337 15.9384 29.1808 15.9645C29.0269 15.9882 28.8765 16.0095 28.7298 16.0284C28.5853 16.045 28.4682 16.0592 28.3782 16.071C28.1604 16.0994 27.9568 16.1456 27.7674 16.2095C27.5804 16.2711 27.4289 16.3646 27.3129 16.4901C27.1992 16.6132 27.1424 16.7812 27.1424 16.9943C27.1424 17.2855 27.2501 17.5057 27.4656 17.6548C27.6834 17.8016 27.9592 17.875 28.293 17.875ZM32.3084 18.5V11.2273H33.1465V13.9119H33.2175C33.2791 13.8172 33.3643 13.6965 33.4732 13.5497C33.5845 13.4006 33.7431 13.268 33.949 13.152C34.1574 13.0336 34.4391 12.9744 34.7942 12.9744C35.2535 12.9744 35.6583 13.0893 36.0087 13.3189C36.3591 13.5485 36.6325 13.8741 36.829 14.2955C37.0255 14.7169 37.1238 15.214 37.1238 15.7869C37.1238 16.3646 37.0255 16.8653 36.829 17.2891C36.6325 17.7105 36.3603 18.0372 36.0123 18.2692C35.6642 18.4988 35.263 18.6136 34.8084 18.6136C34.458 18.6136 34.1775 18.5556 33.9668 18.4396C33.7561 18.3213 33.5939 18.1875 33.4803 18.0384C33.3667 17.8868 33.2791 17.7614 33.2175 17.6619H33.1181V18.5H32.3084ZM33.1323 15.7727C33.1323 16.1847 33.1926 16.5481 33.3134 16.8629C33.4341 17.1754 33.6105 17.4205 33.8425 17.598C34.0745 17.7732 34.3586 17.8608 34.6948 17.8608C35.0452 17.8608 35.3375 17.7685 35.5719 17.5838C35.8087 17.3968 35.9862 17.1458 36.1046 16.831C36.2253 16.5137 36.2857 16.161 36.2857 15.7727C36.2857 15.3892 36.2265 15.0436 36.1081 14.7358C35.9921 14.4257 35.8158 14.1806 35.579 14.0007C35.3446 13.8184 35.0499 13.7273 34.6948 13.7273C34.3539 13.7273 34.0674 13.8137 33.8354 13.9865C33.6034 14.157 33.4282 14.3961 33.3098 14.7038C33.1915 15.0092 33.1323 15.3655 33.1323 15.7727ZM40.6926 18.6136C40.1671 18.6136 39.7137 18.4976 39.3326 18.2656C38.9538 18.0312 38.6614 17.7045 38.4554 17.2855C38.2518 16.8641 38.15 16.3741 38.15 15.8153C38.15 15.2566 38.2518 14.7642 38.4554 14.3381C38.6614 13.9096 38.9479 13.5758 39.3148 13.3366C39.6841 13.0952 40.115 12.9744 40.6074 12.9744C40.8915 12.9744 41.1721 13.0218 41.449 13.1165C41.726 13.2112 41.9782 13.3651 42.2054 13.5781C42.4327 13.7888 42.6138 14.0682 42.7488 14.4162C42.8837 14.7642 42.9512 15.1927 42.9512 15.7017V16.0568H38.7466V15.3324H42.0989C42.0989 15.0246 42.0373 14.75 41.9142 14.5085C41.7935 14.267 41.6207 14.0765 41.3958 13.9368C41.1732 13.7971 40.9105 13.7273 40.6074 13.7273C40.2736 13.7273 39.9848 13.8101 39.7409 13.9759C39.4995 14.1392 39.3136 14.3523 39.1834 14.6151C39.0532 14.8778 38.9881 15.1596 38.9881 15.4602V15.9432C38.9881 16.3551 39.0591 16.7043 39.2012 16.9908C39.3456 17.2749 39.5456 17.4915 39.8013 17.6406C40.057 17.7874 40.3541 17.8608 40.6926 17.8608C40.9128 17.8608 41.1117 17.83 41.2892 17.7685C41.4692 17.7045 41.6242 17.6098 41.7544 17.4844C41.8846 17.3565 41.9853 17.1979 42.0563 17.0085L42.8659 17.2358C42.7807 17.5104 42.6375 17.7519 42.4363 17.9602C42.235 18.1662 41.9864 18.3272 41.6905 18.4432C41.3946 18.5568 41.062 18.6136 40.6926 18.6136ZM45.0641 11.2273V18.5H44.226V11.2273H45.0641Z"
    fill="#F9FAFB" />
</svg>