<svg viewBox="0 0 65 56" fill="none" xmlns="http://www.w3.org/2000/svg">
  <rect width="64.5801" height="55.7737" rx="3.91395" transform="matrix(1 0 0 -1 0 55.7737)"
    fill="#1F2937" />
  <path
    d="M42.79 27.8869C42.79 22.09 38.0869 17.3869 32.29 17.3869C26.4932 17.3869 21.79 22.09 21.79 27.8869C21.79 33.6837 26.4932 38.3869 32.29 38.3869C38.0869 38.3869 42.79 33.6837 42.79 27.8869Z"
    stroke="#F9FAFB" stroke-width="1.75" stroke-miterlimit="10" />
  <path
    d="M32.29 35.7619C36.6393 35.7619 40.165 32.2361 40.165 27.8869C40.165 23.5376 36.6393 20.0119 32.29 20.0119C27.9408 20.0119 24.415 23.5376 24.415 27.8869C24.415 32.2361 27.9408 35.7619 32.29 35.7619Z"
    fill="#F9FAFB" />
</svg>