<svg viewBox="0 0 66 29" fill="none" xmlns="http://www.w3.org/2000/svg">
  <rect width="66" height="28" rx="4" transform="matrix(1 0 0 -1 0 28.5)" fill="#121825" />
  <path
    d="M26.2293 14.267L25.4765 14.4801C25.4291 14.3546 25.3593 14.2327 25.267 14.1143C25.177 13.9936 25.0539 13.8942 24.8976 13.8161C24.7414 13.7379 24.5413 13.6989 24.2975 13.6989C23.9637 13.6989 23.6855 13.7758 23.463 13.9297C23.2428 14.0812 23.1327 14.2741 23.1327 14.5085C23.1327 14.7169 23.2085 14.8814 23.36 15.0021C23.5115 15.1229 23.7483 15.2235 24.0702 15.304L24.8799 15.5028C25.3676 15.6212 25.731 15.8023 25.9701 16.0462C26.2092 16.2876 26.3287 16.599 26.3287 16.9801C26.3287 17.2926 26.2388 17.572 26.0589 17.8182C25.8813 18.0644 25.6327 18.2585 25.3131 18.4006C24.9935 18.5426 24.6218 18.6136 24.1981 18.6136C23.6417 18.6136 23.1813 18.4929 22.8167 18.2514C22.4521 18.0099 22.2213 17.6572 22.1242 17.1932L22.9197 16.9943C22.9954 17.2879 23.1386 17.508 23.3493 17.6548C23.5624 17.8016 23.8406 17.875 24.1839 17.875C24.5745 17.875 24.8846 17.7921 25.1143 17.6264C25.3463 17.4583 25.4623 17.2571 25.4623 17.0227C25.4623 16.8333 25.396 16.6747 25.2634 16.5469C25.1308 16.4167 24.9272 16.3196 24.6526 16.2557L23.7435 16.0426C23.244 15.9242 22.877 15.7408 22.6427 15.4922C22.4107 15.2412 22.2947 14.9276 22.2947 14.5511C22.2947 14.2434 22.3811 13.9711 22.5539 13.7344C22.7291 13.4976 22.967 13.3118 23.2677 13.1768C23.5707 13.0419 23.914 12.9744 24.2975 12.9744C24.8373 12.9744 25.261 13.0928 25.5688 13.3295C25.8789 13.5663 26.0991 13.8788 26.2293 14.267ZM27.5903 20.5455V13.0455H28.3999V13.9119H28.4994C28.5609 13.8172 28.6462 13.6965 28.7551 13.5497C28.8663 13.4006 29.0249 13.268 29.2309 13.152C29.4392 13.0336 29.721 12.9744 30.0761 12.9744C30.5354 12.9744 30.9402 13.0893 31.2906 13.3189C31.641 13.5485 31.9144 13.8741 32.1109 14.2955C32.3074 14.7169 32.4056 15.214 32.4056 15.7869C32.4056 16.3646 32.3074 16.8653 32.1109 17.2891C31.9144 17.7105 31.6421 18.0372 31.2941 18.2692C30.9461 18.4988 30.5448 18.6136 30.0903 18.6136C29.7399 18.6136 29.4594 18.5556 29.2487 18.4396C29.038 18.3213 28.8758 18.1875 28.7622 18.0384C28.6485 17.8868 28.5609 17.7614 28.4994 17.6619H28.4284V20.5455H27.5903ZM28.4142 15.7727C28.4142 16.1847 28.4745 16.5481 28.5953 16.8629C28.716 17.1754 28.8924 17.4205 29.1244 17.598C29.3564 17.7732 29.6405 17.8608 29.9767 17.8608C30.327 17.8608 30.6194 17.7685 30.8538 17.5838C31.0905 17.3968 31.2681 17.1458 31.3865 16.831C31.5072 16.5137 31.5676 16.161 31.5676 15.7727C31.5676 15.3892 31.5084 15.0436 31.39 14.7358C31.274 14.4257 31.0976 14.1806 30.8609 14.0007C30.6265 13.8184 30.3318 13.7273 29.9767 13.7273C29.6357 13.7273 29.3493 13.8137 29.1173 13.9865C28.8853 14.157 28.7101 14.3961 28.5917 14.7038C28.4733 15.0092 28.4142 15.3655 28.4142 15.7727ZM35.2892 18.6278C34.9435 18.6278 34.6298 18.5627 34.3481 18.4325C34.0664 18.3 33.8427 18.1094 33.6769 17.8608C33.5112 17.6098 33.4284 17.3068 33.4284 16.9517C33.4284 16.6392 33.4899 16.3859 33.613 16.1918C33.7361 15.9953 33.9007 15.8414 34.1066 15.7301C34.3126 15.6188 34.5399 15.536 34.7884 15.4815C35.0394 15.4247 35.2915 15.3797 35.5448 15.3466C35.8763 15.304 36.145 15.272 36.3509 15.2507C36.5593 15.227 36.7108 15.188 36.8055 15.1335C36.9026 15.0791 36.9511 14.9844 36.9511 14.8494V14.821C36.9511 14.4706 36.8552 14.1984 36.6634 14.0043C36.474 13.8101 36.1864 13.7131 35.8005 13.7131C35.4004 13.7131 35.0867 13.8007 34.8595 13.9759C34.6322 14.151 34.4724 14.3381 34.3801 14.5369L33.5846 14.2528C33.7267 13.9214 33.916 13.6634 34.1528 13.4787C34.3919 13.2917 34.6523 13.1615 34.934 13.0881C35.2181 13.0123 35.4975 12.9744 35.7721 12.9744C35.9473 12.9744 36.1485 12.9957 36.3758 13.0384C36.6054 13.0786 36.8268 13.1626 37.0399 13.2905C37.2553 13.4183 37.434 13.6113 37.5761 13.8693C37.7181 14.1274 37.7892 14.473 37.7892 14.9062V18.5H36.9511V17.7614H36.9085C36.8517 17.8797 36.757 18.0064 36.6244 18.1413C36.4918 18.2763 36.3154 18.3911 36.0953 18.4858C35.8751 18.5805 35.6064 18.6278 35.2892 18.6278ZM35.417 17.875C35.7484 17.875 36.0278 17.8099 36.2551 17.6797C36.4847 17.5495 36.6575 17.3814 36.7735 17.1754C36.8919 16.9695 36.9511 16.7528 36.9511 16.5256V15.7585C36.9156 15.8011 36.8374 15.8402 36.7167 15.8757C36.5983 15.9089 36.461 15.9384 36.3048 15.9645C36.1509 15.9882 36.0006 16.0095 35.8538 16.0284C35.7094 16.045 35.5922 16.0592 35.5022 16.071C35.2844 16.0994 35.0808 16.1456 34.8914 16.2095C34.7044 16.2711 34.5529 16.3646 34.4369 16.4901C34.3232 16.6132 34.2664 16.7812 34.2664 16.9943C34.2664 17.2855 34.3741 17.5057 34.5896 17.6548C34.8074 17.8016 35.0832 17.875 35.417 17.875ZM40.1569 15.2188V18.5H39.3188V13.0455H40.1285V13.8977H40.1995C40.3273 13.6207 40.5215 13.3982 40.7819 13.2301C41.0423 13.0597 41.3785 12.9744 41.7904 12.9744C42.1597 12.9744 42.4829 13.0502 42.7599 13.2017C43.0368 13.3509 43.2523 13.5781 43.4062 13.8835C43.56 14.1866 43.637 14.5701 43.637 15.0341V18.5H42.7989V15.0909C42.7989 14.6624 42.6876 14.3286 42.4651 14.0895C42.2426 13.848 41.9372 13.7273 41.5489 13.7273C41.2814 13.7273 41.0423 13.7853 40.8316 13.9013C40.6233 14.0173 40.4587 14.1866 40.338 14.4091C40.2172 14.6316 40.1569 14.9015 40.1569 15.2188Z"
    fill="#F9FAFB" />
</svg>