<svg viewBox="0 0 66 29" fill="none" xmlns="http://www.w3.org/2000/svg">
  <rect width="66" height="28" rx="4" transform="matrix(1 0 0 -1 0 28.5)" fill="#121825" />
  <path
    d="M21.3101 13.0455C21.2675 12.6856 21.0947 12.4062 20.7916 12.2074C20.4886 12.0085 20.1169 11.9091 19.6766 11.9091C19.3546 11.9091 19.0729 11.9612 18.8314 12.0653C18.5923 12.1695 18.4053 12.3127 18.2703 12.495C18.1378 12.6773 18.0715 12.8845 18.0715 13.1165C18.0715 13.3106 18.1176 13.4775 18.21 13.6172C18.3047 13.7545 18.4254 13.8693 18.5722 13.9616C18.719 14.0516 18.8728 14.1262 19.0338 14.1854C19.1948 14.2422 19.3428 14.2884 19.4777 14.3239L20.2164 14.5227C20.4057 14.5724 20.6164 14.6411 20.8485 14.7287C21.0828 14.8163 21.3066 14.9358 21.5196 15.0874C21.7351 15.2365 21.9126 15.4283 22.0523 15.6626C22.192 15.897 22.2618 16.1847 22.2618 16.5256C22.2618 16.9186 22.1588 17.2737 21.9529 17.5909C21.7493 17.9081 21.451 18.1603 21.058 18.3473C20.6673 18.5343 20.1927 18.6278 19.634 18.6278C19.1131 18.6278 18.6621 18.5438 18.281 18.3757C17.9022 18.2076 17.6039 17.9732 17.3861 17.6726C17.1707 17.3719 17.0487 17.0227 17.0203 16.625H17.9294C17.9531 16.8996 18.0454 17.1269 18.2064 17.3068C18.3698 17.4844 18.5757 17.617 18.8243 17.7045C19.0753 17.7898 19.3451 17.8324 19.634 17.8324C19.9701 17.8324 20.272 17.7779 20.5395 17.669C20.807 17.5578 21.0189 17.4039 21.1752 17.2074C21.3314 17.0085 21.4095 16.7765 21.4095 16.5114C21.4095 16.2699 21.3421 16.0734 21.2071 15.9219C21.0722 15.7704 20.8946 15.6473 20.6744 15.5526C20.4543 15.4579 20.2164 15.375 19.9607 15.304L19.0658 15.0483C18.4976 14.8849 18.0478 14.6518 17.7164 14.3487C17.3849 14.0457 17.2192 13.6491 17.2192 13.1591C17.2192 12.7519 17.3293 12.3968 17.5494 12.0938C17.772 11.7884 18.0703 11.5516 18.4443 11.3835C18.8208 11.2131 19.241 11.1278 19.705 11.1278C20.1737 11.1278 20.5904 11.2119 20.955 11.38C21.3196 11.5457 21.6084 11.773 21.8215 12.0618C22.0369 12.3506 22.1505 12.6785 22.1624 13.0455H21.3101ZM27.0336 16.2699V13.0455H27.8717V18.5H27.0336V17.5767H26.9768C26.849 17.8537 26.6501 18.0893 26.3802 18.2834C26.1104 18.4751 25.7694 18.571 25.3575 18.571C25.0166 18.571 24.7136 18.4964 24.4484 18.3473C24.1833 18.1958 23.9749 17.9685 23.8234 17.6655C23.6719 17.3601 23.5961 16.9754 23.5961 16.5114V13.0455H24.4342V16.4545C24.4342 16.8523 24.5455 17.1695 24.768 17.4062C24.9929 17.643 25.2794 17.7614 25.6274 17.7614C25.8357 17.7614 26.0476 17.7081 26.2631 17.6016C26.4809 17.495 26.6631 17.3317 26.8099 17.1115C26.9591 16.8913 27.0336 16.6108 27.0336 16.2699ZM29.5203 18.5V11.2273H30.3584V13.9119H30.4294C30.491 13.8172 30.5762 13.6965 30.6851 13.5497C30.7964 13.4006 30.955 13.268 31.161 13.152C31.3693 13.0336 31.651 12.9744 32.0061 12.9744C32.4654 12.9744 32.8702 13.0893 33.2206 13.3189C33.571 13.5485 33.8444 13.8741 34.0409 14.2955C34.2374 14.7169 34.3357 15.214 34.3357 15.7869C34.3357 16.3646 34.2374 16.8653 34.0409 17.2891C33.8444 17.7105 33.5722 18.0372 33.2242 18.2692C32.8762 18.4988 32.4749 18.6136 32.0203 18.6136C31.67 18.6136 31.3894 18.5556 31.1787 18.4396C30.968 18.3213 30.8058 18.1875 30.6922 18.0384C30.5786 17.8868 30.491 17.7614 30.4294 17.6619H30.33V18.5H29.5203ZM30.3442 15.7727C30.3442 16.1847 30.4046 16.5481 30.5253 16.8629C30.646 17.1754 30.8224 17.4205 31.0544 17.598C31.2864 17.7732 31.5705 17.8608 31.9067 17.8608C32.2571 17.8608 32.5494 17.7685 32.7838 17.5838C33.0206 17.3968 33.1981 17.1458 33.3165 16.831C33.4372 16.5137 33.4976 16.161 33.4976 15.7727C33.4976 15.3892 33.4384 15.0436 33.32 14.7358C33.204 14.4257 33.0277 14.1806 32.7909 14.0007C32.5566 13.8184 32.2618 13.7273 31.9067 13.7273C31.5658 13.7273 31.2793 13.8137 31.0473 13.9865C30.8153 14.157 30.6401 14.3961 30.5218 14.7038C30.4034 15.0092 30.3442 15.3655 30.3442 15.7727ZM35.6176 18.5V13.0455H36.4273V13.8977H36.4983C36.6119 13.6065 36.7954 13.3804 37.0487 13.2195C37.3021 13.0561 37.6063 12.9744 37.9614 12.9744C38.3212 12.9744 38.6207 13.0561 38.8598 13.2195C39.1013 13.3804 39.2895 13.6065 39.4244 13.8977H39.4813C39.6209 13.616 39.8305 13.3923 40.1098 13.2266C40.3892 13.0585 40.7242 12.9744 41.1148 12.9744C41.6025 12.9744 42.0014 13.1271 42.3115 13.4325C42.6217 13.7356 42.7767 14.2079 42.7767 14.8494V18.5H41.9387V14.8494C41.9387 14.447 41.8286 14.1593 41.6084 13.9865C41.3882 13.8137 41.129 13.7273 40.8307 13.7273C40.4472 13.7273 40.1501 13.8433 39.9394 14.0753C39.7287 14.3049 39.6233 14.5961 39.6233 14.9489V18.5H38.771V14.7642C38.771 14.4541 38.6704 14.2043 38.4692 14.0149C38.268 13.8232 38.0087 13.7273 37.6915 13.7273C37.4737 13.7273 37.2701 13.7853 37.0807 13.9013C36.8937 14.0173 36.7422 14.1783 36.6262 14.3842C36.5125 14.5878 36.4557 14.8234 36.4557 15.0909V18.5H35.6176ZM44.309 18.5V13.0455H45.1471V18.5H44.309ZM44.7352 12.1364C44.5718 12.1364 44.431 12.0807 44.3126 11.9695C44.1966 11.8582 44.1386 11.7244 44.1386 11.5682C44.1386 11.4119 44.1966 11.2782 44.3126 11.1669C44.431 11.0556 44.5718 11 44.7352 11C44.8985 11 45.0382 11.0556 45.1542 11.1669C45.2726 11.2782 45.3318 11.4119 45.3318 11.5682C45.3318 11.7244 45.2726 11.8582 45.1542 11.9695C45.0382 12.0807 44.8985 12.1364 44.7352 12.1364ZM49.0542 13.0455V13.7557H46.2275V13.0455H49.0542ZM47.0514 11.7386H47.8895V16.9375C47.8895 17.1742 47.9238 17.3518 47.9925 17.4702C48.0635 17.5862 48.1534 17.6643 48.2623 17.7045C48.3736 17.7424 48.4908 17.7614 48.6139 17.7614C48.7062 17.7614 48.782 17.7566 48.8412 17.7472C48.9004 17.7353 48.9477 17.7259 48.9832 17.7188L49.1537 18.4716C49.0969 18.4929 49.0175 18.5142 48.9157 18.5355C48.814 18.5592 48.6849 18.571 48.5287 18.571C48.2919 18.571 48.0599 18.5201 47.8327 18.4183C47.6077 18.3165 47.4207 18.1615 47.2716 17.9531C47.1248 17.7448 47.0514 17.482 47.0514 17.1648V11.7386Z"
    fill="#F9FAFB" />
</svg>