<svg viewBox="0 0 66 57" fill="none" xmlns="http://www.w3.org/2000/svg">
  <rect width="64.5801" height="55.7737" rx="3.91395" transform="matrix(1 0 0 -1 0.532227 56.6105)"
    fill="#121825" />
  <path
    d="M12.5354 26.3718V25.6074H17.8726V26.3718H15.6349V32.7236H14.7732V26.3718H12.5354ZM20.5551 32.8348C20.0409 32.8348 19.5973 32.7213 19.2243 32.4943C18.8537 32.265 18.5676 31.9453 18.366 31.5353C18.1668 31.123 18.0672 30.6434 18.0672 30.0967C18.0672 29.5501 18.1668 29.0682 18.366 28.6513C18.5676 28.232 18.8479 27.9053 19.2069 27.6714C19.5683 27.4351 19.9899 27.317 20.4717 27.317C20.7497 27.317 21.0242 27.3633 21.2953 27.4559C21.5663 27.5486 21.813 27.6992 22.0354 27.9077C22.2578 28.1138 22.435 28.3872 22.567 28.7277C22.699 29.0682 22.7651 29.4875 22.7651 29.9856V30.333H18.651V29.6242H21.9311C21.9311 29.323 21.8709 29.0543 21.7504 28.818C21.6323 28.5818 21.4632 28.3953 21.2431 28.2586C21.0254 28.1219 20.7683 28.0536 20.4717 28.0536C20.1451 28.0536 19.8625 28.1347 19.6239 28.2968C19.3876 28.4567 19.2058 28.6652 19.0784 28.9223C18.951 29.1794 18.8873 29.4551 18.8873 29.7493V30.2218C18.8873 30.6249 18.9568 30.9666 19.0957 31.2469C19.237 31.5249 19.4328 31.7368 19.683 31.8828C19.9332 32.0264 20.2239 32.0982 20.5551 32.0982C20.7706 32.0982 20.9652 32.0681 21.1389 32.0079C21.3149 31.9453 21.4667 31.8526 21.5941 31.7299C21.7215 31.6048 21.8199 31.4496 21.8894 31.2643L22.6817 31.4866C22.5983 31.7554 22.4581 31.9916 22.2612 32.1955C22.0643 32.397 21.8211 32.5545 21.5315 32.6681C21.242 32.7792 20.9165 32.8348 20.5551 32.8348ZM24.4807 27.3864L25.7594 29.5686L27.0381 27.3864H27.9833L26.2598 30.055L27.9833 32.7236H27.0381L25.7594 30.6527L24.4807 32.7236H23.5356L25.2313 30.055L23.5356 27.3864H24.4807ZM31.4745 27.3864V28.0814H28.7086V27.3864H31.4745ZM29.5147 26.1077H30.3348V31.1948C30.3348 31.4264 30.3684 31.6001 30.4356 31.716C30.505 31.8295 30.5931 31.9059 30.6996 31.9453C30.8085 31.9824 30.9232 32.0009 31.0436 32.0009C31.134 32.0009 31.2081 31.9963 31.266 31.987C31.3239 31.9754 31.3703 31.9662 31.405 31.9592L31.5718 32.6959C31.5162 32.7167 31.4386 32.7375 31.339 32.7584C31.2394 32.7816 31.1131 32.7931 30.9602 32.7931C30.7286 32.7931 30.5016 32.7433 30.2792 32.6437C30.0591 32.5441 29.8761 32.3924 29.7302 32.1885C29.5866 31.9847 29.5147 31.7276 29.5147 31.4171V26.1077ZM35.5712 32.7236V25.6074H36.433V31.9592H39.7409V32.7236H35.5712ZM40.964 32.7236V27.3864H41.7841V32.7236H40.964ZM41.381 26.4969C41.2211 26.4969 41.0833 26.4425 40.9675 26.3336C40.854 26.2247 40.7972 26.0938 40.7972 25.941C40.7972 25.7881 40.854 25.6572 40.9675 25.5483C41.0833 25.4394 41.2211 25.385 41.381 25.385C41.5408 25.385 41.6775 25.4394 41.791 25.5483C41.9068 25.6572 41.9647 25.7881 41.9647 25.941C41.9647 26.0938 41.9068 26.2247 41.791 26.3336C41.6775 26.4425 41.5408 26.4969 41.381 26.4969ZM44.106 29.513V32.7236H43.286V27.3864H44.0783V28.2204H44.1477C44.2728 27.9494 44.4628 27.7316 44.7176 27.5671C44.9724 27.4003 45.3014 27.317 45.7044 27.317C46.0658 27.317 46.382 27.3911 46.653 27.5393C46.9241 27.6853 47.1349 27.9077 47.2854 28.2065C47.436 28.503 47.5113 28.8783 47.5113 29.3323V32.7236H46.6913V29.3879C46.6913 28.9686 46.5824 28.642 46.3646 28.408C46.1469 28.1717 45.8481 28.0536 45.4681 28.0536C45.2064 28.0536 44.9724 28.1104 44.7663 28.2239C44.5624 28.3374 44.4014 28.503 44.2833 28.7207C44.1651 28.9385 44.106 29.2026 44.106 29.513ZM49.7742 30.7778L49.7603 29.7632H49.9271L52.2621 27.3864H53.2768L50.7888 29.9022H50.7193L49.7742 30.7778ZM49.0098 32.7236V25.6074H49.8298V32.7236H49.0098ZM52.4011 32.7236L50.3163 30.0828L50.9 29.513L53.4435 32.7236H52.4011Z"
    fill="#F9FAFB" />
  <path d="M12.0629 34.6695H53.5825V35.3367H12.0629V34.6695Z" fill="#F9FAFB" />
</svg>