<svg viewBox="0 0 65 56" fill="none" xmlns="http://www.w3.org/2000/svg">
  <rect width="64.5801" height="55.7737" rx="3.91395" transform="matrix(1 0 0 -1 0 55.7737)"
    fill="#1F2937" />
  <path
    d="M43.665 34.9082C43.4201 34.908 43.1779 34.8564 42.9541 34.7567C42.902 34.7336 42.8524 34.7054 42.8059 34.6725L38.2827 31.4886C38.0533 31.3271 37.8661 31.1128 37.7368 30.8639C37.6076 30.6149 37.5401 30.3385 37.54 30.058V25.7158C37.5401 25.4352 37.6076 25.1588 37.7368 24.9099C37.8661 24.6609 38.0533 24.4466 38.2827 24.2851L42.8059 21.1012C42.8524 21.0683 42.902 21.0401 42.9541 21.017C43.2205 20.8986 43.5124 20.8486 43.803 20.8716C44.0937 20.8945 44.374 20.9898 44.6185 21.1487C44.863 21.3076 45.064 21.525 45.2031 21.7813C45.3422 22.0375 45.415 22.3245 45.415 22.6161V33.1576C45.415 33.6218 45.2307 34.0669 44.9025 34.3951C44.5743 34.7233 44.1292 34.9076 43.665 34.9076V34.9082ZM32.9463 35.7619H22.8838C21.8978 35.7609 20.9525 35.3687 20.2554 34.6716C19.5582 33.9744 19.1661 33.0291 19.165 32.0431V23.7306C19.1661 22.7447 19.5582 21.7994 20.2554 21.1022C20.9525 20.405 21.8978 20.0129 22.8838 20.0119H32.9725C33.9515 20.013 34.89 20.4024 35.5823 21.0947C36.2745 21.7869 36.6639 22.7254 36.665 23.7044V32.0431C36.664 33.0291 36.2719 33.9744 35.5747 34.6716C34.8775 35.3687 33.9323 35.7609 32.9463 35.7619Z"
    fill="#F9FAFB" />
</svg>